<svg id="svg"  version="1.1" xmlns="http://www.w3.org/2000/svg" xmlns:xlink="http://www.w3.org/1999/xlink" width="278" height="210" viewBox="0, 0, 400,300"><g id="svgg"><path id="path0" d="M227.513 156.536 C 227.463 156.586,226.943 156.674,226.358 156.732 C 225.772 156.790,224.985 156.880,224.609 156.933 C 224.233 156.986,223.655 157.060,223.324 157.096 C 222.994 157.132,222.600 157.238,222.450 157.331 C 222.300 157.424,221.825 157.533,221.394 157.573 C 220.963 157.613,220.547 157.749,220.469 157.876 C 220.391 158.002,220.170 158.117,219.978 158.132 C 219.402 158.175,218.750 158.432,218.750 158.617 C 218.750 158.711,218.579 158.789,218.371 158.789 C 218.162 158.789,217.937 158.878,217.869 158.988 C 217.802 159.097,217.665 159.135,217.565 159.074 C 217.465 159.012,217.383 159.060,217.383 159.180 C 217.383 159.300,217.295 159.344,217.188 159.277 C 217.080 159.211,216.992 159.299,216.992 159.473 C 216.992 159.646,216.919 159.743,216.829 159.688 C 216.739 159.632,216.390 159.825,216.053 160.116 C 215.328 160.742,215.083 161.859,215.693 161.755 C 215.892 161.720,216.010 161.764,215.956 161.852 C 215.902 161.940,216.288 161.981,216.815 161.944 C 217.343 161.907,217.773 161.780,217.773 161.661 C 217.773 161.514,217.848 161.520,218.008 161.680 C 218.266 161.937,218.633 162.003,218.485 161.765 C 218.435 161.682,218.759 161.608,219.206 161.600 C 219.654 161.591,220.767 161.511,221.680 161.423 C 222.593 161.334,223.560 161.268,223.828 161.277 C 224.097 161.286,224.426 161.203,224.561 161.092 C 224.732 160.950,224.805 160.958,224.805 161.119 C 224.805 161.277,225.275 161.341,226.318 161.323 C 227.151 161.309,228.271 161.399,228.809 161.521 C 229.346 161.644,230.022 161.791,230.310 161.849 C 231.231 162.034,231.522 162.563,231.533 164.072 C 231.538 164.819,231.473 165.430,231.388 165.430 C 231.303 165.430,231.252 165.540,231.275 165.674 C 231.348 166.101,231.016 167.774,230.837 167.885 C 230.742 167.944,230.664 168.382,230.664 168.859 C 230.664 169.336,230.579 169.727,230.475 169.727 C 230.371 169.727,230.336 169.858,230.398 170.020 C 230.460 170.181,230.423 170.313,230.316 170.313 C 230.157 170.313,229.970 170.732,229.794 171.484 C 229.782 171.538,229.661 171.780,229.527 172.021 C 229.393 172.263,229.341 172.461,229.412 172.461 C 229.482 172.461,229.440 172.582,229.317 172.729 C 229.195 172.877,229.155 173.155,229.229 173.347 C 229.329 173.608,229.297 173.656,229.102 173.535 C 228.912 173.418,228.873 173.460,228.960 173.686 C 229.026 173.858,228.984 174.030,228.867 174.069 C 228.750 174.108,228.643 174.363,228.628 174.636 C 228.614 174.909,228.449 175.366,228.261 175.652 C 228.074 175.938,227.969 176.172,228.028 176.172 C 228.087 176.172,227.999 176.435,227.833 176.756 C 227.322 177.743,227.988 178.356,229.102 177.922 C 229.155 177.901,229.253 177.890,229.320 177.898 C 229.386 177.906,229.643 177.697,229.891 177.433 C 230.139 177.169,230.268 176.953,230.178 176.953 C 230.088 176.953,230.424 176.634,230.925 176.243 C 231.426 175.853,231.836 175.423,231.836 175.288 C 231.836 175.152,231.966 174.992,232.126 174.931 C 232.307 174.861,232.368 174.689,232.290 174.470 C 232.221 174.278,232.235 174.185,232.322 174.264 C 232.518 174.441,233.235 173.646,233.090 173.412 C 233.032 173.319,233.078 173.242,233.192 173.242 C 233.305 173.242,233.398 173.064,233.398 172.845 C 233.398 172.627,233.530 172.398,233.690 172.337 C 233.851 172.275,233.934 172.146,233.874 172.050 C 233.815 171.954,233.864 171.875,233.984 171.875 C 234.104 171.875,234.149 171.788,234.084 171.682 C 234.018 171.576,234.142 171.299,234.358 171.067 C 234.575 170.834,234.710 170.576,234.659 170.494 C 234.608 170.411,234.708 170.203,234.880 170.030 C 235.053 169.858,235.143 169.584,235.081 169.421 C 235.017 169.256,235.095 169.077,235.256 169.015 C 235.415 168.954,235.496 168.826,235.437 168.730 C 235.377 168.633,235.414 168.555,235.518 168.555 C 235.622 168.555,235.685 168.401,235.656 168.213 C 235.628 168.025,235.731 167.678,235.885 167.442 C 236.038 167.206,236.160 166.942,236.154 166.856 C 236.149 166.770,236.235 166.361,236.347 165.947 C 236.458 165.533,236.500 165.146,236.440 165.086 C 236.380 165.026,236.432 164.856,236.555 164.708 C 236.678 164.560,236.779 164.090,236.779 163.664 C 236.779 163.239,236.863 162.891,236.965 162.891 C 237.068 162.891,237.097 162.671,237.029 162.402 C 236.962 162.134,236.976 161.914,237.061 161.914 C 237.286 161.914,237.242 160.279,237.012 160.110 C 236.891 160.022,236.912 159.966,237.064 159.964 C 237.381 159.960,237.225 158.983,236.872 158.759 C 236.734 158.671,236.709 158.597,236.816 158.594 C 236.924 158.590,236.880 158.504,236.719 158.403 C 236.558 158.301,236.426 158.104,236.426 157.966 C 236.426 157.828,236.206 157.684,235.938 157.646 C 235.669 157.609,235.397 157.495,235.334 157.393 C 235.271 157.291,234.802 157.168,234.292 157.121 C 233.782 157.073,233.301 156.994,233.222 156.945 C 232.745 156.650,228.700 156.470,227.930 156.710 C 227.562 156.824,227.514 156.811,227.734 156.656 C 227.896 156.544,227.932 156.450,227.816 156.448 C 227.699 156.447,227.563 156.486,227.513 156.536 M121.498 159.325 C 121.119 160.157,121.535 161.133,122.268 161.133 C 122.374 161.133,122.461 161.201,122.461 161.285 C 122.461 161.524,123.573 162.679,123.861 162.739 C 124.004 162.769,124.274 163.013,124.462 163.281 C 124.649 163.550,124.803 163.704,124.803 163.623 C 124.804 163.542,124.965 163.630,125.162 163.818 C 125.820 164.448,126.563 165.038,126.563 164.930 C 126.563 164.872,126.791 165.070,127.070 165.371 C 127.349 165.672,127.653 165.918,127.747 165.918 C 127.915 165.918,128.179 166.120,129.455 167.223 C 129.811 167.531,130.175 167.737,130.265 167.681 C 130.354 167.626,130.482 167.721,130.548 167.892 C 130.615 168.069,130.793 168.156,130.956 168.094 C 131.119 168.031,131.225 168.083,131.199 168.211 C 131.173 168.337,131.269 168.443,131.412 168.448 C 131.555 168.453,131.791 168.620,131.936 168.818 C 132.092 169.031,132.299 169.119,132.439 169.032 C 132.583 168.943,132.627 168.966,132.551 169.090 C 132.432 169.283,132.786 169.525,133.362 169.643 C 133.503 169.672,133.784 169.886,133.987 170.120 C 134.189 170.353,134.447 170.486,134.560 170.417 C 134.673 170.347,134.766 170.397,134.766 170.529 C 134.766 170.661,134.820 170.713,134.888 170.646 C 134.955 170.579,135.152 170.698,135.327 170.911 C 135.502 171.123,135.836 171.333,136.070 171.377 C 136.304 171.421,136.678 171.639,136.900 171.861 C 137.123 172.084,137.486 172.266,137.707 172.266 C 137.928 172.266,138.065 172.337,138.011 172.424 C 137.957 172.512,138.388 172.745,138.969 172.942 C 139.550 173.140,139.980 173.375,139.925 173.465 C 139.869 173.555,139.960 173.576,140.127 173.512 C 140.293 173.448,140.430 173.497,140.430 173.620 C 140.430 173.744,140.583 173.819,140.771 173.788 C 140.962 173.756,141.092 173.838,141.064 173.975 C 141.014 174.225,141.213 174.287,141.895 174.233 C 142.173 174.210,142.213 174.250,142.035 174.371 C 141.851 174.497,141.919 174.602,142.292 174.772 C 142.582 174.904,142.746 174.919,142.677 174.806 C 142.466 174.466,142.877 174.592,143.319 175.004 C 143.552 175.221,144.008 175.452,144.332 175.517 C 144.657 175.582,144.922 175.721,144.922 175.827 C 144.922 175.932,145.046 175.971,145.199 175.912 C 145.351 175.854,145.526 175.938,145.588 176.099 C 145.650 176.260,145.789 176.337,145.897 176.270 C 146.005 176.204,146.094 176.231,146.094 176.331 C 146.094 176.432,146.379 176.580,146.729 176.661 C 147.078 176.741,147.495 176.845,147.656 176.892 C 147.817 176.938,148.059 176.986,148.193 176.997 C 148.328 177.009,148.438 177.091,148.438 177.181 C 148.438 177.271,148.594 177.344,148.785 177.344 C 148.976 177.344,149.327 177.481,149.566 177.648 C 149.805 177.815,150.088 177.898,150.196 177.832 C 150.303 177.766,150.391 177.814,150.391 177.939 C 150.391 178.064,150.512 178.120,150.660 178.064 C 150.808 178.007,151.006 178.026,151.099 178.106 C 151.193 178.187,151.665 178.371,152.148 178.517 C 152.632 178.662,153.134 178.861,153.263 178.959 C 153.393 179.056,153.908 179.167,154.408 179.205 C 154.907 179.243,155.469 179.413,155.657 179.583 C 155.845 179.754,156.142 179.837,156.319 179.769 C 156.506 179.698,156.641 179.743,156.641 179.876 C 156.641 180.002,156.838 180.081,157.080 180.049 C 157.322 180.018,157.641 180.068,157.790 180.161 C 157.939 180.254,158.203 180.344,158.376 180.362 C 158.965 180.424,160.249 180.708,161.686 181.094 C 162.474 181.305,163.169 181.427,163.231 181.366 C 163.292 181.304,163.461 181.351,163.605 181.471 C 163.749 181.591,163.867 181.636,163.867 181.572 C 163.867 181.508,164.098 181.543,164.379 181.650 C 164.687 181.767,164.979 181.774,165.112 181.667 C 165.245 181.561,165.526 181.569,165.820 181.690 C 166.089 181.799,166.440 181.907,166.602 181.928 C 166.763 181.949,167.092 182.031,167.334 182.109 C 167.615 182.201,167.773 182.173,167.773 182.033 C 167.773 181.904,167.874 181.877,168.018 181.970 C 168.152 182.056,168.438 182.139,168.652 182.154 C 168.867 182.169,169.746 182.254,170.605 182.344 C 171.465 182.433,172.709 182.510,173.370 182.513 C 174.031 182.517,174.536 182.578,174.492 182.649 C 174.388 182.818,183.449 182.704,185.352 182.512 C 186.157 182.432,187.058 182.356,187.354 182.345 C 187.649 182.333,187.891 182.266,187.891 182.195 C 187.891 182.124,188.160 182.108,188.489 182.160 C 188.820 182.212,189.219 182.145,189.383 182.009 C 189.615 181.816,189.710 181.815,189.826 182.003 C 189.935 182.179,190.113 182.189,190.501 182.041 C 190.792 181.931,191.092 181.850,191.169 181.861 C 191.246 181.873,191.375 181.861,191.455 181.835 C 191.631 181.777,192.722 181.658,193.253 181.637 C 193.463 181.629,193.744 181.531,193.879 181.419 C 194.013 181.308,194.203 181.265,194.299 181.325 C 194.454 181.420,195.045 181.309,197.363 180.745 C 197.686 180.667,198.081 180.572,198.242 180.533 C 198.581 180.452,199.512 180.287,200.142 180.196 C 200.382 180.161,200.728 180.011,200.912 179.861 C 201.183 179.642,201.216 179.641,201.088 179.854 C 200.982 180.029,201.101 180.005,201.439 179.784 C 201.720 179.600,202.071 179.496,202.219 179.552 C 202.367 179.609,202.747 179.498,203.064 179.305 C 203.381 179.113,203.867 178.955,204.144 178.955 C 204.420 178.955,204.924 178.817,205.263 178.648 C 205.602 178.479,206.007 178.389,206.162 178.449 C 206.318 178.509,206.445 178.463,206.445 178.347 C 206.445 178.232,206.577 178.188,206.738 178.250 C 206.899 178.312,207.031 178.265,207.031 178.146 C 207.031 178.027,207.244 177.930,207.503 177.930 C 207.763 177.930,208.005 177.844,208.040 177.740 C 208.076 177.636,208.281 177.523,208.496 177.490 C 208.711 177.457,209.019 177.347,209.180 177.245 C 209.341 177.144,209.686 177.031,209.946 176.996 C 210.206 176.960,210.602 176.829,210.825 176.705 C 211.048 176.581,211.310 176.503,211.408 176.531 C 211.505 176.560,211.651 176.477,211.731 176.347 C 211.811 176.217,212.119 176.085,212.415 176.054 C 212.711 176.022,213.005 175.926,213.068 175.840 C 213.132 175.754,213.315 175.655,213.477 175.619 C 213.638 175.584,213.923 175.417,214.111 175.247 C 214.299 175.078,214.454 175.019,214.456 175.116 C 214.458 175.213,214.542 175.161,214.644 175.000 C 214.829 174.707,214.902 174.680,215.611 174.634 C 215.818 174.620,216.126 174.471,216.295 174.302 C 216.463 174.134,216.602 174.059,216.602 174.137 C 216.602 174.215,216.782 174.116,217.002 173.917 C 217.222 173.718,217.542 173.535,217.714 173.509 C 217.887 173.484,218.088 173.365,218.162 173.245 C 218.237 173.125,218.377 173.045,218.475 173.068 C 218.705 173.122,219.727 172.701,219.727 172.552 C 219.727 172.489,219.625 172.501,219.501 172.577 C 219.357 172.666,219.329 172.631,219.423 172.478 C 219.504 172.346,219.697 172.287,219.851 172.347 C 220.006 172.406,220.182 172.324,220.243 172.165 C 220.304 172.005,220.523 171.875,220.730 171.875 C 220.937 171.875,221.155 171.749,221.214 171.594 C 221.273 171.439,221.559 171.261,221.849 171.197 C 222.139 171.133,222.629 170.864,222.937 170.599 C 223.246 170.334,223.556 170.117,223.626 170.117 C 223.697 170.117,223.945 169.940,224.178 169.722 C 224.411 169.505,224.625 169.346,224.654 169.368 C 224.683 169.391,224.971 169.241,225.293 169.036 C 225.809 168.707,226.152 168.378,226.711 167.676 C 227.122 167.159,226.654 165.078,226.223 165.509 C 226.161 165.571,225.985 165.518,225.832 165.391 C 225.511 165.125,224.773 165.025,224.923 165.268 C 224.978 165.357,224.930 165.430,224.816 165.430 C 224.702 165.430,224.609 165.343,224.609 165.238 C 224.609 165.132,224.299 165.220,223.920 165.433 C 223.541 165.646,223.098 165.820,222.936 165.820 C 222.775 165.820,222.430 165.960,222.170 166.130 C 221.910 166.301,221.605 166.383,221.493 166.314 C 221.381 166.245,221.289 166.274,221.289 166.380 C 221.289 166.549,220.145 167.050,219.629 167.106 C 219.329 167.138,218.325 167.536,217.707 167.868 C 217.402 168.032,217.067 168.113,216.963 168.048 C 216.858 167.983,216.587 168.093,216.360 168.291 C 216.134 168.490,216.014 168.540,216.094 168.403 C 216.174 168.266,215.920 168.334,215.529 168.554 C 215.138 168.773,214.752 168.912,214.671 168.861 C 214.589 168.811,214.294 168.889,214.013 169.034 C 213.733 169.180,213.462 169.256,213.410 169.204 C 213.358 169.152,213.088 169.258,212.810 169.440 C 212.532 169.623,212.305 169.707,212.305 169.627 C 212.305 169.548,212.156 169.604,211.974 169.751 C 211.689 169.983,211.667 169.979,211.816 169.727 C 211.965 169.474,211.944 169.470,211.659 169.702 C 211.477 169.849,211.328 169.904,211.328 169.824 C 211.328 169.744,211.207 169.779,211.060 169.901 C 210.912 170.024,210.649 170.069,210.474 170.002 C 210.293 169.932,210.156 169.978,210.156 170.108 C 210.156 170.233,210.072 170.284,209.970 170.220 C 209.867 170.157,209.461 170.239,209.067 170.404 C 208.673 170.568,208.142 170.703,207.886 170.703 C 207.631 170.703,207.422 170.788,207.422 170.892 C 207.422 170.996,207.290 171.031,207.129 170.969 C 206.968 170.907,206.835 170.932,206.835 171.024 C 206.834 171.116,206.485 171.211,206.059 171.235 C 205.633 171.260,204.979 171.407,204.607 171.562 C 204.103 171.773,203.905 171.787,203.835 171.616 C 203.766 171.446,203.738 171.449,203.726 171.625 C 203.718 171.756,203.588 171.816,203.438 171.758 C 203.287 171.700,203.106 171.747,203.035 171.862 C 202.964 171.978,202.704 172.021,202.458 171.959 C 202.205 171.896,201.890 171.960,201.737 172.105 C 201.587 172.247,201.245 172.359,200.977 172.354 C 200.708 172.349,200.424 172.437,200.345 172.549 C 200.252 172.681,200.200 172.663,200.198 172.498 C 200.197 172.358,200.123 172.287,200.035 172.342 C 199.878 172.439,199.108 172.626,198.340 172.754 C 198.125 172.790,197.905 172.840,197.852 172.866 C 197.798 172.892,197.534 172.934,197.266 172.961 C 196.997 172.987,196.520 173.066,196.206 173.135 C 195.892 173.205,195.101 173.294,194.448 173.332 C 193.796 173.370,193.262 173.420,193.262 173.441 C 193.262 173.480,192.835 173.522,190.625 173.704 C 190.034 173.753,189.331 173.854,189.063 173.928 C 188.404 174.112,188.059 174.110,187.614 173.921 C 187.395 173.827,187.286 173.836,187.352 173.941 C 187.416 174.046,186.758 174.112,185.772 174.098 C 184.843 174.086,184.018 174.112,183.940 174.156 C 183.678 174.304,176.794 174.318,176.885 174.170 C 176.935 174.089,176.795 174.023,176.574 174.023 C 176.353 174.023,176.172 174.122,176.172 174.243 C 176.172 174.386,176.057 174.369,175.841 174.194 C 175.556 173.963,175.535 173.966,175.684 174.219 C 175.830 174.467,175.808 174.473,175.542 174.257 C 175.359 174.109,174.829 174.021,174.270 174.046 C 173.744 174.070,173.195 174.018,173.052 173.929 C 172.862 173.812,172.836 173.842,172.957 174.042 C 173.094 174.270,173.070 174.274,172.810 174.064 C 172.556 173.858,172.480 173.858,172.398 174.064 C 172.320 174.257,172.293 174.259,172.281 174.072 C 172.273 173.938,172.173 173.828,172.059 173.828 C 171.945 173.828,171.915 173.930,171.991 174.054 C 172.077 174.193,172.045 174.226,171.906 174.140 C 171.591 173.946,170.953 173.819,169.884 173.738 C 169.380 173.700,168.874 173.612,168.761 173.542 C 168.648 173.472,168.553 173.529,168.552 173.670 C 168.549 173.863,168.512 173.868,168.399 173.690 C 168.314 173.556,167.981 173.489,167.621 173.535 C 167.275 173.578,166.992 173.549,166.992 173.470 C 166.992 173.391,166.816 173.326,166.602 173.326 C 166.387 173.326,166.211 173.390,166.211 173.469 C 166.211 173.548,165.960 173.525,165.653 173.418 C 165.346 173.311,165.017 173.242,164.921 173.264 C 164.825 173.286,164.614 173.256,164.453 173.197 C 163.873 172.985,161.503 172.646,161.333 172.751 C 161.238 172.810,161.101 172.763,161.029 172.646 C 160.957 172.530,160.609 172.459,160.256 172.490 C 159.903 172.520,159.494 172.449,159.348 172.332 C 158.988 172.044,157.837 171.898,157.760 172.131 C 157.725 172.234,157.533 172.153,157.331 171.952 C 157.079 171.700,156.940 171.660,156.886 171.823 C 156.828 171.998,156.680 171.977,156.327 171.746 C 156.063 171.573,155.794 171.484,155.730 171.549 C 155.665 171.613,155.465 171.587,155.285 171.491 C 155.105 171.394,154.567 171.260,154.090 171.192 C 152.967 171.032,152.453 170.941,152.393 170.890 C 152.366 170.868,152.278 170.837,152.197 170.822 C 152.117 170.807,151.948 170.729,151.822 170.649 C 151.696 170.569,151.345 170.471,151.041 170.431 C 150.737 170.391,150.063 170.210,149.542 170.029 C 149.022 169.847,148.468 169.748,148.312 169.808 C 148.129 169.878,148.077 169.836,148.166 169.691 C 148.258 169.544,148.201 169.505,148.005 169.580 C 147.839 169.644,147.627 169.620,147.534 169.527 C 147.440 169.434,147.068 169.306,146.706 169.242 C 146.345 169.179,145.729 168.989,145.339 168.820 C 144.948 168.652,144.497 168.495,144.336 168.472 C 144.052 168.431,143.684 168.304,142.871 167.967 C 141.962 167.589,140.565 167.201,140.426 167.288 C 140.343 167.339,140.223 167.245,140.160 167.080 C 140.096 166.914,139.933 166.793,139.798 166.811 C 139.213 166.887,138.657 166.783,138.761 166.616 C 138.891 166.405,138.174 166.133,137.915 166.294 C 137.818 166.353,137.631 166.271,137.498 166.111 C 137.365 165.951,137.061 165.820,136.822 165.820 C 136.583 165.820,136.187 165.646,135.942 165.434 C 135.697 165.221,135.430 165.088,135.348 165.139 C 135.267 165.189,135.096 165.104,134.969 164.951 C 134.841 164.797,134.607 164.721,134.449 164.782 C 134.291 164.843,134.027 164.728,133.863 164.526 C 133.699 164.325,133.631 164.287,133.712 164.443 C 133.799 164.608,133.603 164.543,133.240 164.284 C 132.899 164.041,132.531 163.897,132.423 163.964 C 132.315 164.031,132.227 163.992,132.227 163.879 C 132.227 163.765,132.048 163.672,131.830 163.672 C 131.612 163.672,131.380 163.533,131.314 163.363 C 131.219 163.113,131.163 163.104,131.030 163.314 C 130.905 163.511,130.865 163.489,130.862 163.221 C 130.861 163.027,130.779 162.917,130.681 162.978 C 130.582 163.039,130.472 162.999,130.436 162.890 C 130.400 162.781,130.178 162.655,129.944 162.609 C 129.709 162.564,129.348 162.436,129.140 162.325 C 128.932 162.214,128.707 162.179,128.639 162.246 C 128.571 162.314,128.516 162.262,128.516 162.130 C 128.516 161.999,128.434 161.942,128.334 162.003 C 128.234 162.065,128.021 161.929,127.861 161.701 C 127.701 161.473,127.475 161.344,127.359 161.416 C 127.243 161.488,127.148 161.463,127.148 161.361 C 127.148 161.259,126.920 161.118,126.641 161.048 C 126.128 160.919,125.024 160.224,124.759 159.863 C 124.671 159.744,124.614 159.767,124.612 159.924 C 124.611 160.064,124.520 160.124,124.411 160.057 C 124.302 159.989,124.264 159.850,124.328 159.747 C 124.391 159.645,124.371 159.572,124.282 159.587 C 123.977 159.636,123.247 159.330,123.333 159.190 C 123.381 159.113,123.314 159.039,123.185 159.025 C 123.055 159.012,122.670 158.971,122.328 158.934 C 121.831 158.880,121.666 158.957,121.498 159.325 " stroke="none" fill="#fc9c04" fill-rule="evenodd"></path><path id="path1" d="M103.320 117.094 C 102.407 117.237,101.396 117.456,101.074 117.581 C 100.752 117.706,100.248 117.840,99.954 117.879 C 99.316 117.963,96.875 119.148,96.875 119.374 C 96.875 119.460,96.778 119.531,96.659 119.531 C 96.029 119.531,92.829 122.857,93.075 123.256 C 93.137 123.356,93.116 123.438,93.029 123.438 C 92.898 123.439,92.115 125.069,92.091 125.391 C 92.087 125.444,92.022 125.586,91.946 125.705 C 91.870 125.825,91.769 126.220,91.721 126.584 C 91.674 126.948,91.580 127.385,91.512 127.556 C 91.168 128.420,92.253 128.862,95.508 129.184 C 96.748 129.307,98.071 129.468,98.961 129.605 C 99.722 129.722,100.417 129.067,100.765 127.906 C 101.152 126.617,102.054 125.478,103.066 125.002 C 103.969 124.578,106.692 124.175,106.983 124.422 C 107.063 124.491,107.437 124.663,107.813 124.805 C 108.715 125.146,109.326 125.710,109.805 126.644 C 110.278 127.567,110.430 128.734,110.368 130.974 L 110.352 131.577 107.764 131.807 C 100.725 132.431,96.924 133.630,94.087 136.120 C 93.687 136.472,93.358 136.860,93.356 136.983 C 93.354 137.106,93.125 137.423,92.848 137.686 C 92.570 137.950,92.263 138.345,92.165 138.565 C 92.067 138.785,91.798 139.272,91.566 139.648 C 90.699 141.054,90.192 145.214,90.637 147.266 C 90.742 147.749,90.875 148.408,90.932 148.730 C 91.141 149.904,91.453 150.608,92.203 151.607 C 92.624 152.168,92.969 152.686,92.969 152.760 C 92.969 153.191,96.359 155.179,96.717 154.958 C 96.845 154.878,96.881 154.910,96.804 155.035 C 96.435 155.632,103.564 155.779,105.469 155.214 C 106.927 154.781,109.225 153.391,110.640 152.086 L 111.808 151.010 112.203 151.608 C 112.420 151.937,112.793 152.415,113.033 152.670 C 113.272 152.925,113.448 153.154,113.424 153.178 C 113.318 153.286,114.989 154.931,115.430 155.154 C 116.097 155.490,117.101 155.526,117.416 155.223 C 117.559 155.086,118.577 154.192,119.678 153.237 C 120.779 152.281,121.680 151.421,121.680 151.324 C 121.680 151.228,121.754 151.195,121.845 151.251 C 122.137 151.431,122.979 150.314,123.013 149.702 C 123.037 149.282,122.820 148.808,122.267 148.073 C 120.168 145.279,120.130 145.056,120.105 135.396 C 120.083 126.524,119.921 124.600,119.048 122.816 C 118.455 121.606,116.911 119.727,116.510 119.727 C 116.368 119.727,116.208 119.610,116.153 119.468 C 115.526 117.833,107.772 116.399,103.320 117.094 M192.464 116.992 C 190.823 117.232,188.281 117.847,188.281 118.004 C 188.281 118.086,188.161 118.106,188.013 118.049 C 187.866 117.993,187.622 118.061,187.472 118.202 C 187.321 118.342,187.068 118.484,186.909 118.518 C 186.751 118.551,186.293 118.793,185.893 119.055 C 185.492 119.317,185.079 119.531,184.975 119.531 C 184.702 119.531,182.262 121.919,182.190 122.258 C 182.156 122.415,181.964 122.723,181.763 122.942 C 181.299 123.447,180.429 125.363,180.564 125.582 C 180.620 125.673,180.585 125.777,180.486 125.813 C 180.232 125.905,180.052 128.125,180.297 128.125 C 180.404 128.125,180.437 128.213,180.371 128.321 C 180.199 128.598,180.935 128.831,182.520 129.001 C 184.561 129.221,184.926 129.264,186.523 129.473 C 188.494 129.732,189.030 129.398,189.331 127.728 C 189.800 125.123,193.957 123.551,196.676 124.951 C 198.323 125.799,198.802 127.029,198.902 130.664 L 198.926 131.543 197.852 131.677 C 197.261 131.750,195.942 131.866,194.922 131.934 C 192.838 132.073,189.795 132.622,188.474 133.098 C 187.992 133.272,187.067 133.584,186.419 133.792 C 185.064 134.226,182.031 136.275,182.031 136.757 C 182.031 136.869,181.746 137.212,181.396 137.520 C 181.047 137.828,180.844 138.081,180.946 138.083 C 181.047 138.085,180.985 138.196,180.808 138.330 C 179.126 139.607,178.410 146.694,179.683 149.481 C 179.886 149.928,180.180 150.601,180.336 150.977 C 180.861 152.247,183.335 154.526,184.464 154.780 C 184.576 154.805,185.000 154.972,185.406 155.152 C 186.407 155.595,189.856 155.768,192.188 155.492 C 194.887 155.173,196.965 154.094,199.717 151.584 L 200.313 151.040 201.084 152.096 C 201.508 152.676,202.111 153.387,202.423 153.675 C 202.735 153.963,203.254 154.485,203.577 154.834 C 204.266 155.578,205.489 155.736,205.844 155.127 C 205.953 154.939,206.045 154.862,206.049 154.957 C 206.052 155.051,206.472 154.758,206.982 154.307 C 207.493 153.855,208.336 153.119,208.856 152.671 C 211.144 150.700,211.523 150.268,211.523 149.635 C 211.523 149.299,211.436 149.023,211.328 149.023 C 211.221 149.023,211.151 148.958,211.173 148.877 C 211.195 148.796,210.865 148.214,210.440 147.584 C 208.767 145.099,208.912 146.145,208.768 135.547 C 208.631 125.422,208.606 125.157,207.563 122.907 C 206.449 120.501,203.364 118.080,200.879 117.659 C 200.449 117.586,199.965 117.459,199.803 117.375 C 199.046 116.987,194.222 116.735,192.464 116.992 M144.043 117.288 C 143.936 117.316,143.342 117.451,142.725 117.587 C 142.107 117.724,141.602 117.924,141.602 118.032 C 141.602 118.141,141.546 118.174,141.479 118.107 C 141.048 117.676,137.789 120.569,137.617 121.535 C 137.593 121.668,137.382 122.085,137.147 122.461 L 136.720 123.145 136.719 120.864 C 136.718 117.699,136.825 117.773,132.307 117.773 C 128.579 117.773,128.063 117.890,127.744 118.806 C 127.607 119.200,127.539 125.161,127.539 136.838 L 127.539 154.281 128.074 154.777 L 128.609 155.273 132.536 155.273 C 136.151 155.273,136.490 155.244,136.800 154.901 C 137.110 154.558,137.135 153.760,137.117 144.859 C 137.097 135.483,137.291 130.547,137.736 129.102 C 138.740 125.836,143.371 125.050,144.807 127.902 C 145.705 129.685,145.740 130.249,145.716 142.591 L 145.693 154.225 146.144 154.749 L 146.594 155.273 150.522 155.273 C 154.097 155.273,154.490 155.240,154.910 154.900 L 155.371 154.527 155.411 142.547 C 155.456 129.253,155.425 129.742,156.291 128.404 C 156.634 127.874,156.889 127.354,156.859 127.246 C 156.828 127.139,156.865 127.113,156.941 127.188 C 157.016 127.263,157.187 127.216,157.321 127.082 C 158.904 125.499,162.277 126.168,163.313 128.272 L 163.770 129.199 163.867 141.914 C 163.947 152.295,164.014 154.687,164.233 154.951 C 164.651 155.455,172.449 155.435,172.908 154.929 C 173.187 154.620,173.222 153.019,173.248 139.548 C 173.276 124.698,173.238 123.650,172.641 122.930 C 172.515 122.780,172.470 122.656,172.540 122.656 C 172.609 122.656,172.530 122.393,172.363 122.070 C 172.197 121.748,171.984 121.484,171.891 121.484 C 171.798 121.484,171.669 121.271,171.603 121.011 C 171.393 120.174,168.238 117.790,167.728 118.084 C 167.591 118.163,167.550 118.151,167.636 118.056 C 167.873 117.796,165.107 117.194,163.672 117.193 C 160.205 117.191,156.489 119.114,155.286 121.533 C 155.059 121.990,154.752 122.581,154.604 122.847 L 154.334 123.330 153.976 122.505 C 153.780 122.051,153.546 121.680,153.458 121.680 C 153.370 121.680,153.350 121.594,153.414 121.490 C 153.563 121.249,150.867 118.513,150.093 118.119 C 148.765 117.443,145.280 116.964,144.043 117.288 M258.496 117.312 C 258.281 117.355,257.578 117.489,256.934 117.609 C 255.551 117.867,253.906 118.518,253.906 118.807 C 253.906 118.919,253.850 118.954,253.782 118.886 C 253.713 118.818,253.414 118.935,253.117 119.146 C 252.820 119.358,252.514 119.531,252.438 119.531 C 252.245 119.531,249.969 121.518,250.059 121.608 C 250.099 121.648,249.765 122.081,249.317 122.569 C 248.397 123.571,246.583 127.029,246.796 127.374 C 246.888 127.523,246.849 127.546,246.679 127.441 C 246.488 127.323,246.451 127.390,246.533 127.704 C 246.594 127.936,246.564 128.076,246.466 128.016 C 246.369 127.956,246.289 128.069,246.289 128.268 C 246.289 128.466,246.165 129.109,246.014 129.695 C 245.237 132.703,244.950 136.608,245.296 139.453 C 245.519 141.287,246.444 145.514,246.664 145.703 C 246.726 145.757,246.804 145.933,246.837 146.094 C 247.144 147.604,249.791 151.461,251.425 152.778 C 252.532 153.671,254.232 154.688,254.375 154.544 C 254.440 154.480,254.492 154.521,254.492 154.636 C 254.492 155.553,260.729 156.180,263.867 155.579 C 265.381 155.288,267.578 154.405,267.578 154.087 C 267.578 153.988,267.644 153.928,267.725 153.954 C 268.207 154.111,270.367 152.265,272.210 150.123 C 276.003 145.711,277.328 134.697,274.856 128.125 C 274.796 127.964,274.719 127.700,274.686 127.538 C 274.605 127.140,272.686 123.384,272.495 123.251 C 272.411 123.192,272.084 122.799,271.767 122.376 C 270.974 121.318,269.432 119.900,268.686 119.545 C 268.345 119.383,267.940 119.127,267.786 118.977 C 266.623 117.849,260.912 116.824,258.496 117.312 M296.875 117.413 C 296.499 117.515,295.884 117.667,295.508 117.749 C 293.992 118.083,292.021 119.853,290.992 121.803 C 290.082 123.529,290.039 123.509,290.039 121.357 C 290.039 117.800,290.004 117.773,285.320 117.773 C 282.238 117.773,281.951 117.804,281.409 118.190 L 280.824 118.607 280.901 136.542 L 280.978 154.478 281.437 154.876 C 282.136 155.482,289.434 155.488,290.039 154.883 C 290.419 154.503,290.430 154.228,290.434 144.580 C 290.439 133.979,290.460 133.447,290.967 130.782 C 292.044 125.115,297.609 124.241,299.030 129.515 C 299.350 130.706,299.359 131.046,299.387 143.115 C 299.413 154.213,299.424 154.502,299.805 154.883 C 300.254 155.332,308.203 155.506,308.203 155.067 C 308.203 154.953,308.287 154.911,308.389 154.974 C 308.491 155.037,308.666 154.917,308.779 154.706 C 309.042 154.215,309.068 127.464,308.806 127.626 C 308.706 127.688,308.669 127.472,308.723 127.133 C 308.822 126.503,308.315 123.639,308.005 123.078 C 307.907 122.900,307.640 122.325,307.412 121.800 C 307.043 120.950,305.434 119.043,305.086 119.043 C 305.013 119.043,304.798 118.889,304.609 118.700 C 303.445 117.535,299.092 116.811,296.875 117.413 M216.965 118.147 C 216.515 118.511,216.504 118.596,216.504 121.655 C 216.504 125.891,215.792 125.475,223.159 125.545 L 229.117 125.602 228.670 126.422 C 228.424 126.872,228.021 127.448,227.775 127.701 C 227.528 127.953,227.100 128.526,226.823 128.973 C 226.546 129.419,226.148 129.973,225.938 130.203 C 225.729 130.434,225.539 130.746,225.517 130.898 C 225.495 131.050,225.237 131.432,224.945 131.747 C 224.653 132.062,224.414 132.391,224.414 132.477 C 224.414 132.563,224.235 132.826,224.015 133.062 C 223.796 133.297,223.387 133.887,223.106 134.372 C 222.825 134.857,222.302 135.584,221.942 135.987 C 221.583 136.390,221.289 136.817,221.289 136.935 C 221.289 137.054,221.091 137.393,220.850 137.689 C 220.608 137.985,220.278 138.425,220.117 138.668 C 219.956 138.910,219.419 139.657,218.924 140.327 C 218.429 140.997,217.858 141.833,217.654 142.184 C 217.451 142.535,217.043 143.084,216.748 143.404 C 216.453 143.725,216.200 144.065,216.187 144.161 C 216.136 144.524,216.093 144.641,215.849 145.081 C 215.413 145.866,215.361 146.306,215.285 149.812 C 215.174 154.921,215.343 155.050,219.629 153.132 C 222.061 152.044,224.908 151.545,228.711 151.541 C 232.996 151.536,235.092 151.964,239.258 153.693 C 242.010 154.835,242.285 154.519,242.285 150.214 C 242.285 146.589,242.163 146.203,240.739 145.323 C 239.235 144.393,233.536 142.785,232.606 143.028 C 232.397 143.083,232.227 143.059,232.227 142.975 C 232.227 142.892,231.461 142.808,230.525 142.790 C 228.462 142.749,228.552 142.840,229.441 141.688 C 229.845 141.165,230.352 140.458,230.566 140.116 C 230.958 139.494,231.992 138.002,233.802 135.449 C 234.335 134.697,235.121 133.570,235.550 132.945 C 237.186 130.555,238.168 129.183,238.545 128.760 C 238.760 128.518,238.876 128.320,238.804 128.320 C 238.731 128.320,238.807 128.167,238.972 127.979 C 239.688 127.163,240.586 125.807,240.480 125.701 C 240.417 125.638,240.470 125.586,240.599 125.586 C 241.749 125.586,242.054 118.669,240.938 117.923 C 240.370 117.544,217.445 117.758,216.965 118.147 M262.072 124.836 C 262.576 124.961,263.053 125.159,263.132 125.276 C 263.211 125.393,263.277 125.405,263.278 125.304 C 263.285 124.917,264.276 126.491,264.642 127.469 C 266.406 132.183,266.345 142.152,264.531 145.701 C 264.110 146.525,263.281 147.765,263.281 147.572 C 263.281 147.495,263.050 147.615,262.767 147.837 C 262.484 148.060,262.039 148.242,261.779 148.242 C 261.518 148.242,261.353 148.320,261.412 148.416 C 261.532 148.610,260.420 148.506,259.375 148.225 C 257.642 147.760,256.231 145.243,255.761 141.779 C 255.683 141.198,255.583 140.547,255.539 140.332 C 255.397 139.633,255.419 133.142,255.568 131.738 C 255.705 130.446,255.747 130.171,255.939 129.346 C 255.982 129.158,256.048 128.872,256.085 128.711 C 256.122 128.550,256.196 128.374,256.250 128.320 C 256.304 128.267,256.595 127.703,256.898 127.069 C 257.899 124.968,259.615 124.228,262.072 124.836 M198.597 137.290 C 199.041 137.304,199.048 137.334,198.932 138.818 C 198.867 139.651,198.781 140.859,198.741 141.504 C 198.701 142.148,198.620 142.808,198.561 142.969 C 198.502 143.130,198.273 143.814,198.051 144.489 C 197.589 145.893,196.367 147.460,195.305 148.008 C 192.031 149.697,189.384 147.817,189.320 143.757 L 189.285 141.519 189.966 140.591 C 191.340 138.720,193.680 137.500,195.894 137.500 C 196.554 137.500,197.053 137.434,197.003 137.354 C 196.953 137.273,197.189 137.222,197.528 137.241 C 197.867 137.259,198.348 137.281,198.597 137.290 M110.352 139.329 C 110.352 140.442,110.255 141.826,110.138 142.405 C 110.020 142.984,109.919 143.589,109.913 143.750 C 109.907 143.911,109.842 144.087,109.769 144.141 C 109.695 144.194,109.402 144.722,109.117 145.313 C 106.589 150.555,100.057 148.936,100.647 143.213 C 101.041 139.399,103.837 137.526,109.424 137.336 L 110.352 137.305 110.352 139.329 " stroke="none" fill="#241c1c" fill-rule="evenodd"></path><path id="path2" d="M137.200 143.848 C 137.200 149.326,137.225 151.595,137.256 148.891 C 137.286 146.186,137.286 141.703,137.256 138.930 C 137.225 136.156,137.200 138.369,137.200 143.848 M145.767 136.816 C 145.768 137.568,145.803 137.852,145.846 137.447 C 145.888 137.042,145.887 136.426,145.844 136.080 C 145.801 135.733,145.766 136.064,145.767 136.816 M198.877 137.988 C 198.880 138.418,198.920 138.571,198.966 138.328 C 199.013 138.085,199.011 137.733,198.962 137.547 C 198.913 137.360,198.875 137.559,198.877 137.988 M280.941 147.656 C 280.941 149.751,280.970 150.608,281.005 149.561 C 281.040 148.513,281.040 146.799,281.005 145.752 C 280.970 144.705,280.941 145.562,280.941 147.656 " stroke="none" fill="#242424" fill-rule="evenodd"></path><path id="path3" d="M227.516 156.695 C 227.600 156.779,227.881 156.764,228.141 156.661 C 228.584 156.486,228.575 156.477,227.989 156.509 C 227.646 156.528,227.433 156.612,227.516 156.695 M221.777 157.321 C 221.088 157.549,221.065 157.575,221.582 157.538 C 221.904 157.515,222.344 157.394,222.559 157.270 C 223.066 156.975,222.757 156.996,221.777 157.321 M236.443 157.980 C 236.365 158.106,236.438 158.258,236.608 158.323 C 236.775 158.387,236.863 158.518,236.804 158.614 C 236.744 158.710,236.789 158.789,236.903 158.789 C 237.183 158.789,237.163 158.546,236.846 158.113 C 236.663 157.862,236.541 157.822,236.443 157.980 M122.961 159.076 C 123.169 159.234,123.436 159.365,123.554 159.369 C 123.671 159.372,123.927 159.551,124.122 159.767 C 124.317 159.982,124.517 160.118,124.566 160.069 C 124.707 159.928,124.184 159.480,123.456 159.119 C 122.639 158.713,122.460 158.697,122.961 159.076 M121.203 159.496 C 121.023 160.213,121.166 160.256,121.427 159.563 C 121.547 159.245,121.575 158.984,121.489 158.984 C 121.402 158.984,121.274 159.214,121.203 159.496 M216.320 159.674 C 216.112 159.832,216.040 159.961,216.162 159.961 C 216.284 159.961,216.438 159.872,216.506 159.762 C 216.573 159.653,216.710 159.615,216.810 159.676 C 216.910 159.738,216.992 159.696,216.992 159.582 C 216.992 159.301,216.774 159.331,216.320 159.674 M125.781 160.602 C 125.942 160.764,126.294 160.960,126.563 161.038 C 127.183 161.220,127.043 161.080,126.172 160.648 C 125.645 160.387,125.555 160.376,125.781 160.602 M121.875 161.213 C 122.632 161.976,122.987 162.126,122.611 161.523 C 122.477 161.309,122.256 161.133,122.121 161.133 C 121.986 161.133,121.875 161.054,121.875 160.958 C 121.875 160.862,121.721 160.726,121.533 160.654 C 121.345 160.583,121.499 160.834,121.875 161.213 M127.928 161.814 C 128.061 161.974,128.247 162.057,128.342 161.998 C 128.438 161.939,128.516 161.999,128.516 162.130 C 128.516 162.262,128.581 162.304,128.662 162.224 C 128.742 162.143,128.638 161.953,128.429 161.800 C 127.932 161.437,127.622 161.445,127.928 161.814 M215.625 161.879 C 215.625 161.962,215.951 162.052,216.350 162.078 C 217.204 162.136,217.158 162.020,216.260 161.849 C 215.911 161.783,215.625 161.796,215.625 161.879 M230.852 162.342 C 231.071 162.577,231.250 162.845,231.250 162.939 C 231.250 163.032,231.345 163.051,231.460 162.979 C 231.678 162.844,230.947 161.914,230.622 161.914 C 230.530 161.914,230.633 162.106,230.852 162.342 M236.770 163.525 C 236.745 164.043,236.771 164.088,236.911 163.770 C 237.131 163.266,237.151 162.891,236.956 162.891 C 236.871 162.891,236.788 163.176,236.770 163.525 M124.842 163.655 C 124.887 163.807,125.139 164.065,125.401 164.229 C 125.772 164.460,125.813 164.464,125.586 164.246 C 125.425 164.091,125.173 163.833,125.026 163.672 C 124.812 163.436,124.776 163.433,124.842 163.655 M133.984 164.626 C 133.984 164.721,134.165 164.845,134.386 164.903 C 134.716 164.989,134.747 164.959,134.558 164.731 C 134.300 164.420,133.984 164.362,133.984 164.626 M126.563 165.009 C 126.563 165.100,126.738 165.333,126.953 165.527 C 127.168 165.722,127.344 165.823,127.344 165.753 C 127.344 165.683,127.168 165.449,126.953 165.234 C 126.738 165.020,126.563 164.918,126.563 165.009 M136.133 165.625 C 136.294 165.729,136.558 165.814,136.719 165.814 C 136.979 165.814,136.979 165.793,136.719 165.625 C 136.558 165.521,136.294 165.436,136.133 165.436 C 135.872 165.436,135.872 165.457,136.133 165.625 M138.784 166.579 C 138.725 166.674,138.895 166.794,139.162 166.845 C 139.746 166.957,139.780 166.881,139.270 166.608 C 139.055 166.493,138.844 166.480,138.784 166.579 M220.143 166.725 C 219.782 166.883,219.527 167.053,219.578 167.104 C 219.628 167.154,220.056 167.024,220.528 166.815 C 221.000 166.605,221.255 166.435,221.094 166.436 C 220.933 166.437,220.505 166.567,220.143 166.725 M214.990 168.494 C 214.802 168.543,214.648 168.665,214.648 168.764 C 214.648 169.004,214.703 168.996,215.359 168.654 C 215.892 168.375,215.724 168.302,214.990 168.494 M230.408 169.017 C 230.324 169.325,230.303 169.626,230.362 169.685 C 230.565 169.888,230.693 169.565,230.628 169.012 L 230.562 168.457 230.408 169.017 M134.586 170.452 C 134.577 170.583,134.744 170.782,134.957 170.896 C 135.271 171.065,135.322 171.048,135.229 170.806 C 135.166 170.643,135.044 170.554,134.957 170.608 C 134.870 170.662,134.754 170.595,134.700 170.460 C 134.626 170.277,134.597 170.275,134.586 170.452 M234.321 171.096 C 233.948 171.531,233.879 171.768,234.179 171.583 C 234.370 171.464,234.837 170.703,234.718 170.703 C 234.685 170.703,234.506 170.880,234.321 171.096 M221.631 171.228 C 221.443 171.278,221.289 171.402,221.289 171.506 C 221.289 171.614,221.475 171.596,221.729 171.465 C 222.461 171.084,222.434 171.018,221.631 171.228 M233.466 172.567 C 233.284 173.041,233.538 173.126,233.780 172.673 C 233.931 172.391,233.934 172.266,233.790 172.266 C 233.675 172.266,233.529 172.401,233.466 172.567 M138.672 172.894 C 138.894 173.134,140.430 173.780,140.430 173.634 C 140.430 173.547,140.188 173.388,139.893 173.281 C 139.597 173.174,139.180 173.020,138.965 172.938 C 138.750 172.856,138.618 172.837,138.672 172.894 M164.546 173.234 C 164.609 173.336,164.775 173.377,164.914 173.323 C 165.053 173.270,165.402 173.316,165.689 173.425 C 165.976 173.534,166.211 173.548,166.211 173.457 C 166.211 173.366,165.936 173.236,165.601 173.169 C 164.740 172.997,164.412 173.017,164.546 173.234 M194.434 173.244 C 194.182 173.353,194.391 173.373,195.020 173.300 C 195.557 173.238,196.033 173.156,196.077 173.117 C 196.247 172.971,194.807 173.082,194.434 173.244 M187.939 174.039 C 188.172 174.174,188.391 174.174,188.623 174.039 C 188.902 173.877,188.839 173.840,188.281 173.840 C 187.724 173.840,187.661 173.877,187.939 174.039 M142.860 174.909 C 143.068 175.066,143.327 175.195,143.434 175.195 C 143.541 175.195,143.459 175.066,143.250 174.909 C 143.042 174.751,142.783 174.622,142.676 174.622 C 142.568 174.622,142.651 174.751,142.860 174.909 M214.719 174.849 C 214.585 175.065,215.276 175.030,215.625 174.804 C 215.848 174.659,215.786 174.623,215.365 174.655 C 215.061 174.678,214.770 174.765,214.719 174.849 M230.604 176.471 C 230.303 176.736,230.134 176.953,230.229 176.953 C 230.323 176.953,230.607 176.733,230.859 176.465 C 231.443 175.844,231.314 175.847,230.604 176.471 M150.704 178.092 C 150.595 178.268,152.153 178.772,152.312 178.613 C 152.355 178.570,152.138 178.474,151.830 178.401 C 151.522 178.327,151.167 178.186,151.043 178.089 C 150.906 177.981,150.771 177.983,150.704 178.092 M154.411 179.279 C 154.683 179.527,155.805 179.759,155.566 179.518 C 155.459 179.409,155.115 179.274,154.802 179.218 C 154.489 179.162,154.313 179.189,154.411 179.279 M165.146 181.626 C 165.096 181.706,165.162 181.775,165.292 181.780 C 165.421 181.785,165.696 181.859,165.901 181.944 C 166.146 182.044,166.231 182.027,166.148 181.893 C 165.986 181.630,165.262 181.437,165.146 181.626 " stroke="none" fill="#fc9404" fill-rule="evenodd"></path><path id="path4" d="" stroke="none" fill="#5c1c14" fill-rule="evenodd"></path></g></svg>